<?xml version="1.0" encoding="UTF-8"?>
<!DOCTYPE svg PUBLIC "-//W3C//DTD SVG 1.1//EN" "http://www.w3.org/Graphics/SVG/1.1/DTD/svg11.dtd">
<svg xmlns="http://www.w3.org/2000/svg" version="1.1" width="471px" height="176px" style="shape-rendering:geometricPrecision; text-rendering:geometricPrecision; image-rendering:optimizeQuality; fill-rule:evenodd; clip-rule:evenodd" xmlns:xlink="http://www.w3.org/1999/xlink">
<g><path style="opacity:0.733" fill="#2876ba" d="M 2.5,26.5 C 40.1667,26.5 77.8333,26.5 115.5,26.5C 115.667,49.1691 115.5,71.8358 115,94.5C 111.999,119.355 98.8328,136.189 75.5,145C 44.9123,151.782 22.0789,141.616 7,114.5C 5.20389,110.317 3.87056,105.984 3,101.5C 2.50003,76.5022 2.33336,51.5022 2.5,26.5 Z M 5.5,29.5 C 40.8333,29.5 76.1667,29.5 111.5,29.5C 111.667,53.169 111.5,76.8357 111,100.5C 104.031,127.629 86.531,142.296 58.5,144.5C 30.5057,142.338 13.0057,127.671 6,100.5C 5.50003,76.8357 5.33337,53.169 5.5,29.5 Z M 78.5,65.5 C 83.0242,63.4909 87.8576,62.1576 93,61.5C 94.6268,61.6251 96.1268,62.1251 97.5,63C 91.0982,63.4397 84.7649,64.273 78.5,65.5 Z M 95.5,68.5 C 92.1565,73.5081 87.4898,76.5081 81.5,77.5C 86.1585,74.5031 90.8252,71.5031 95.5,68.5 Z M 25.5,114.5 C 25.573,116.027 24.9063,117.027 23.5,117.5C 23.427,115.973 24.0937,114.973 25.5,114.5 Z M 23.5,117.5 C 23.573,119.027 22.9063,120.027 21.5,120.5C 21.427,118.973 22.0937,117.973 23.5,117.5 Z"/></g>
<g><path style="opacity:0.941" fill="#2a76b9" d="M 35.5,31.5 C 60.1698,30.5965 85.1698,30.2631 110.5,30.5C 110.667,52.5025 110.5,74.5025 110,96.5C 108.249,109.836 102.416,121.003 92.5,130C 89.438,130.741 86.438,130.575 83.5,129.5C 81.8962,111.312 77.5629,93.8118 70.5,77C 75.9097,73.2971 81.5764,70.1304 87.5,67.5C 80.9416,68.7425 74.775,71.0758 69,74.5C 65.1636,66.0014 60.4969,58.0014 55,50.5C 50.2663,45.2745 45.7663,39.9411 41.5,34.5C 40.1667,34.1667 38.8333,33.8333 37.5,33.5C 37.5,32.8333 37.1667,32.5 36.5,32.5C 36.5,31.8333 36.1667,31.5 35.5,31.5 Z M 78.5,65.5 C 84.7649,64.273 91.0982,63.4397 97.5,63C 96.1268,62.1251 94.6268,61.6251 93,61.5C 87.8576,62.1576 83.0242,63.4909 78.5,65.5 Z M 95.5,68.5 C 92.1565,73.5081 87.4898,76.5081 81.5,77.5C 86.1585,74.5031 90.8252,71.5031 95.5,68.5 Z"/></g>
<g><path style="opacity:0.886" fill="#2575b7" d="M 134.5,30.5 C 138.167,30.5 141.833,30.5 145.5,30.5C 145.334,40.1724 145.5,49.8391 146,59.5C 149.4,64.4518 153.9,65.6185 159.5,63C 160.701,62.0975 161.535,60.9308 162,59.5C 162.5,49.8391 162.666,40.1724 162.5,30.5C 166.167,30.5 169.833,30.5 173.5,30.5C 173.903,41.231 173.403,51.8977 172,62.5C 166.88,71.7723 159.047,75.2723 148.5,73C 142.499,71.6644 138.332,68.1644 136,62.5C 134.571,51.9115 134.071,41.2449 134.5,30.5 Z"/></g>
<g><path style="opacity:0.888" fill="#2575b7" d="M 181.5,30.5 C 184.85,30.335 188.183,30.5017 191.5,31C 198.028,38.5609 204.195,46.3942 210,54.5C 210.5,46.5069 210.666,38.5069 210.5,30.5C 214.167,30.5 217.833,30.5 221.5,30.5C 221.5,44.5 221.5,58.5 221.5,72.5C 218.102,72.8204 214.768,72.487 211.5,71.5C 204.853,64.199 198.687,56.5323 193,48.5C 192.5,56.4931 192.334,64.4931 192.5,72.5C 188.833,72.5 185.167,72.5 181.5,72.5C 181.5,58.5 181.5,44.5 181.5,30.5 Z"/></g>
<g><path style="opacity:0.868" fill="#2575b7" d="M 229.5,30.5 C 233.167,30.5 236.833,30.5 240.5,30.5C 240.5,44.5 240.5,58.5 240.5,72.5C 236.833,72.5 233.167,72.5 229.5,72.5C 229.5,58.5 229.5,44.5 229.5,30.5 Z"/></g>
<g><path style="opacity:0.974" fill="#f29c48" d="M 37.5,34.5 C 38.4778,34.811 39.1445,35.4777 39.5,36.5C 28.4479,53.5888 25.6145,71.9221 31,91.5C 32.0269,94.7542 33.5269,97.7542 35.5,100.5C 31.7286,104.925 28.3953,109.591 25.5,114.5C 24.0937,114.973 23.427,115.973 23.5,117.5C 22.0937,117.973 21.427,118.973 21.5,120.5C 20.6618,120.842 20.3284,121.508 20.5,122.5C 19.8333,122.5 19.5,122.833 19.5,123.5C 11.8474,115.918 7.84743,106.585 7.5,95.5C 7.5,74.1667 7.5,52.8333 7.5,31.5C 16.1731,31.3336 24.8397,31.5002 33.5,32C 34.4709,33.4813 35.8042,34.3146 37.5,34.5 Z"/></g>
<g><path style="opacity:0.137" fill="#fea232" d="M 35.5,31.5 C 36.1667,31.5 36.5,31.8333 36.5,32.5C 37.1667,32.5 37.5,32.8333 37.5,33.5C 37.5,33.8333 37.5,34.1667 37.5,34.5C 35.8042,34.3146 34.4709,33.4813 33.5,32C 24.8397,31.5002 16.1731,31.3336 7.5,31.5C 7.5,52.8333 7.5,74.1667 7.5,95.5C 6.50265,74.0064 6.16932,52.3398 6.5,30.5C 16.2496,30.1935 25.9162,30.5268 35.5,31.5 Z"/></g>
<g><path style="opacity:0.944" fill="#f29c48" d="M 40.5,37.5 C 51.3502,49.1875 59.6835,62.5209 65.5,77.5C 55.9662,81.8425 47.6328,88.0092 40.5,96C 39.5509,96.6172 38.7175,96.4506 38,95.5C 29.0328,75.7604 29.8661,56.4271 40.5,37.5 Z"/></g>
<g><path style="opacity:0.788" fill="#2575b7" d="M 454.5,67.5 C 455.776,68.3864 455.776,69.3864 454.5,70.5C 451.36,72.473 448.36,74.6397 445.5,77C 442.776,77.2695 440.109,77.7695 437.5,78.5C 437.167,78.1667 436.833,77.8333 436.5,77.5C 438.984,74.5157 441.65,71.6824 444.5,69C 448.025,68.8213 451.359,68.3213 454.5,67.5 Z"/></g>
<g><path style="opacity:0.947" fill="#f29c48" d="M 65.5,78.5 C 67.446,80.3527 68.946,82.686 70,85.5C 75.8764,99.6722 79.5431,114.339 81,129.5C 66.3471,125.011 54.0137,117.011 44,105.5C 42.4445,103.557 41.2779,101.39 40.5,99C 48.1306,91.1924 56.4639,84.3591 65.5,78.5 Z"/></g>
<g><path style="opacity:0.887" fill="#2575b7" d="M 151.5,79.5 C 160.743,78.0495 168.409,80.7161 174.5,87.5C 172.183,89.316 170.016,91.316 168,93.5C 159.153,86.2069 151.486,87.2069 145,96.5C 143.25,110.875 149.417,116.375 163.5,113C 163.629,109.045 163.629,104.878 163.5,100.5C 166.833,100.5 170.167,100.5 173.5,100.5C 173.666,106.509 173.499,112.509 173,118.5C 162.604,124.908 152.104,125.074 141.5,119C 133.133,110.828 131.299,101.328 136,90.5C 139.746,84.7203 144.913,81.0536 151.5,79.5 Z"/></g>
<g><path style="opacity:0.88" fill="#2575b7" d="M 396.5,79.5 C 405.639,78.2117 413.305,80.8784 419.5,87.5C 417.167,89.5 414.833,91.5 412.5,93.5C 403.889,86.2559 396.389,87.2559 390,96.5C 387.486,109.313 392.652,115.147 405.5,114C 408.173,112.999 410.507,111.499 412.5,109.5C 414.833,111.5 417.167,113.5 419.5,115.5C 413.033,122.487 405.033,124.987 395.5,123C 379.686,117.198 374.853,106.365 381,90.5C 384.962,85.0231 390.129,81.3564 396.5,79.5 Z"/></g>
<g><path style="opacity:0.882" fill="#2575b7" d="M 181.5,80.5 C 185.167,80.5 188.833,80.5 192.5,80.5C 192.334,90.1724 192.5,99.8391 193,109.5C 196.334,114.648 200.834,115.814 206.5,113C 207.893,111.829 208.727,110.329 209,108.5C 209.5,99.1726 209.666,89.8393 209.5,80.5C 213.167,80.5 216.833,80.5 220.5,80.5C 220.903,91.231 220.403,101.898 219,112.5C 215.262,120.123 209.096,123.79 200.5,123.5C 192.511,123.922 186.677,120.589 183,113.5C 181.594,102.564 181.094,91.5637 181.5,80.5 Z"/></g>
<g><path style="opacity:0.89" fill="#2575b7" d="M 240.5,80.5 C 244.226,80.1774 247.893,80.5108 251.5,81.5C 256.393,92.9525 261.559,104.286 267,115.5C 268.314,118.089 268.981,120.756 269,123.5C 265.541,122.867 262.041,122.2 258.5,121.5C 256.633,115.55 252.466,113.217 246,114.5C 242.833,114.667 239.667,114.833 236.5,115C 235.214,117.022 234.214,119.189 233.5,121.5C 229.959,122.2 226.459,122.867 223,123.5C 222.675,121.447 223.009,119.447 224,117.5C 229.797,105.268 235.297,92.9342 240.5,80.5 Z M 245.5,91.5 C 247.478,95.7311 249.478,100.064 251.5,104.5C 247.833,105.833 244.167,105.833 240.5,104.5C 242.457,100.256 244.124,95.923 245.5,91.5 Z"/></g>
<g><path style="opacity:0.951" fill="#2575b7" d="M 273.5,80.5 C 276.833,80.5 280.167,80.5 283.5,80.5C 283.5,94.5 283.5,108.5 283.5,122.5C 280.167,122.5 276.833,122.5 273.5,122.5C 273.5,108.5 273.5,94.5 273.5,80.5 Z"/></g>
<g><path style="opacity:0.894" fill="#2575b7" d="M 292.5,80.5 C 301.173,80.3336 309.84,80.5002 318.5,81C 327.934,84.6991 331.434,91.5324 329,101.5C 327.631,105.246 325.131,107.912 321.5,109.5C 324.142,113.309 326.975,116.976 330,120.5C 330.749,121.635 330.583,122.635 329.5,123.5C 325.841,122.899 322.174,122.233 318.5,121.5C 316.5,118.5 314.5,115.5 312.5,112.5C 309.572,111.516 306.572,111.183 303.5,111.5C 303.5,115.167 303.5,118.833 303.5,122.5C 299.833,122.5 296.167,122.5 292.5,122.5C 292.5,108.5 292.5,94.5 292.5,80.5 Z M 303.5,89.5 C 307.514,89.3345 311.514,89.5012 315.5,90C 321.059,94.3676 320.726,98.3676 314.5,102C 310.848,102.499 307.182,102.665 303.5,102.5C 303.5,98.1667 303.5,93.8333 303.5,89.5 Z"/></g>
<g><path style="opacity:0.889" fill="#2575b7" d="M 349.5,80.5 C 353.226,80.1774 356.893,80.5108 360.5,81.5C 367.227,95.2671 373.06,109.267 378,123.5C 374.541,122.867 371.041,122.2 367.5,121.5C 365.633,115.55 361.466,113.217 355,114.5C 347.461,112.374 343.294,115.04 342.5,122.5C 338.894,122.211 335.394,122.544 332,123.5C 331.833,123 331.667,122.5 331.5,122C 337.409,108.101 343.409,94.2679 349.5,80.5 Z M 354.5,91.5 C 356.478,95.7311 358.478,100.064 360.5,104.5C 356.833,105.833 353.167,105.833 349.5,104.5C 351.457,100.256 353.124,95.923 354.5,91.5 Z"/></g>
<g><path style="opacity:0.891" fill="#2575b7" d="M 437.5,80.5 C 441.167,80.5 444.833,80.5 448.5,80.5C 454.033,93.9212 459.866,107.255 466,120.5C 466.667,121.5 466.667,122.5 466,123.5C 462.589,122.707 459.089,122.207 455.5,122C 454.214,119.978 453.214,117.811 452.5,115.5C 445.833,114.167 439.167,114.167 432.5,115.5C 431.786,117.811 430.786,119.978 429.5,122C 426.11,122.246 422.777,122.746 419.5,123.5C 419.167,123.167 418.833,122.833 418.5,122.5C 424.848,108.474 431.181,94.4739 437.5,80.5 Z M 442.5,91.5 C 444.321,95.9842 446.321,100.484 448.5,105C 444.5,105.667 440.5,105.667 436.5,105C 438.794,100.613 440.794,96.1129 442.5,91.5 Z"/></g>
<g><path style="opacity:0.967" fill="#f29c48" d="M 81.5,134.5 C 81.5,135.167 81.5,135.833 81.5,136.5C 58.5202,147.303 38.0202,143.636 20,125.5C 19.5357,124.906 19.369,124.239 19.5,123.5C 20.1667,123.5 20.5,123.167 20.5,122.5C 21.3382,122.158 21.6716,121.492 21.5,120.5C 22.9063,120.027 23.573,119.027 23.5,117.5C 24.9063,117.027 25.573,116.027 25.5,114.5C 28.7852,110.548 32.4518,106.881 36.5,103.5C 47.7691,117.975 62.4357,127.141 80.5,131C 81.3366,132.011 81.67,133.178 81.5,134.5 Z"/></g>
<g><path style="opacity:0.624" fill="#f19c48" d="M 410.5,129.5 C 412.976,130.815 412.642,131.982 409.5,133C 411.901,136.969 413.901,141.135 415.5,145.5C 414.675,146.386 413.675,146.719 412.5,146.5C 412.5,145.5 412.5,144.5 412.5,143.5C 408.927,143.041 405.927,144.041 403.5,146.5C 403.167,146 402.833,145.5 402.5,145C 404.748,140.67 406.581,136.17 408,131.5C 408.995,130.934 409.828,130.267 410.5,129.5 Z M 408.5,137.5 C 411.347,139.798 411.013,141.131 407.5,141.5C 407.433,140.041 407.766,138.708 408.5,137.5 Z"/></g>
<g><path style="opacity:0.554" fill="#3977b7" d="M 81.5,136.5 C 81.5,135.833 81.5,135.167 81.5,134.5C 82.404,133.791 82.7373,132.791 82.5,131.5C 84.924,131.192 87.2573,131.526 89.5,132.5C 87.0901,134.372 84.4234,135.705 81.5,136.5 Z"/></g>
<g><path style="opacity:0.62" fill="#f19c48" d="M 137.5,133.5 C 140.482,133.104 143.149,133.771 145.5,135.5C 145.192,136.308 144.692,136.975 144,137.5C 140.312,134.761 137.812,135.594 136.5,140C 137.812,144.406 140.312,145.239 144,142.5C 145.489,143.424 145.656,144.424 144.5,145.5C 136.891,147.962 133.391,145.295 134,137.5C 134.69,135.65 135.856,134.316 137.5,133.5 Z"/></g>
<g><path style="opacity:0.6" fill="#f19c48" d="M 152.5,133.5 C 155.898,133.18 159.232,133.513 162.5,134.5C 160.257,135.474 157.924,135.808 155.5,135.5C 155.5,136.5 155.5,137.5 155.5,138.5C 157.5,138.5 159.5,138.5 161.5,138.5C 161.5,139.5 161.5,140.5 161.5,141.5C 159.396,141.201 157.396,141.534 155.5,142.5C 157.743,143.474 160.076,143.808 162.5,143.5C 162.5,144.5 162.5,145.5 162.5,146.5C 159.167,146.5 155.833,146.5 152.5,146.5C 152.5,142.167 152.5,137.833 152.5,133.5 Z"/></g>
<g><path style="opacity:0.61" fill="#f19c48" d="M 170.5,133.5 C 174.056,135.218 176.89,137.884 179,141.5C 179.497,138.854 179.664,136.187 179.5,133.5C 180.5,133.5 181.5,133.5 182.5,133.5C 182.5,137.833 182.5,142.167 182.5,146.5C 181.448,146.649 180.448,146.483 179.5,146C 177.667,143.5 175.833,141 174,138.5C 173.503,141.146 173.336,143.813 173.5,146.5C 172.5,146.5 171.5,146.5 170.5,146.5C 170.5,142.167 170.5,137.833 170.5,133.5 Z"/></g>
<g><path style="opacity:0.654" fill="#f19c48" d="M 188.5,133.5 C 192.226,133.177 195.893,133.511 199.5,134.5C 198.311,135.429 196.978,135.762 195.5,135.5C 195.5,139.167 195.5,142.833 195.5,146.5C 194.5,146.5 193.5,146.5 192.5,146.5C 192.5,142.833 192.5,139.167 192.5,135.5C 190.517,135.843 189.183,135.176 188.5,133.5 Z"/></g>
<g><path style="opacity:0.636" fill="#f19c48" d="M 206.5,133.5 C 209.187,133.336 211.854,133.503 214.5,134C 217.987,136.451 218.32,139.284 215.5,142.5C 216.167,143.5 216.833,144.5 217.5,145.5C 214.951,146.831 213.284,145.998 212.5,143C 211.552,142.517 210.552,142.351 209.5,142.5C 209.5,143.833 209.5,145.167 209.5,146.5C 208.5,146.5 207.5,146.5 206.5,146.5C 206.5,142.167 206.5,137.833 206.5,133.5 Z M 209.5,135.5 C 213.343,135.191 214.676,136.691 213.5,140C 212.207,140.49 210.873,140.657 209.5,140.5C 209.5,138.833 209.5,137.167 209.5,135.5 Z"/></g>
<g><path style="opacity:0.669" fill="#f19c48" d="M 227.5,133.5 C 233.295,132.137 236.961,134.304 238.5,140C 235.529,147.138 231.029,148.304 225,143.5C 223.861,139.579 224.695,136.246 227.5,133.5 Z M 229.5,135.5 C 234.365,135.684 236.032,138.018 234.5,142.5C 231.033,144.958 228.366,144.124 226.5,140C 226.957,138.06 227.957,136.56 229.5,135.5 Z"/></g>
<g><path style="opacity:0.608" fill="#f19c48" d="M 255.5,133.5 C 256.5,133.5 257.5,133.5 258.5,133.5C 258.335,136.518 258.502,139.518 259,142.5C 260.194,144.525 261.694,144.859 263.5,143.5C 264.487,140.232 264.82,136.898 264.5,133.5C 265.5,133.5 266.5,133.5 267.5,133.5C 267.665,136.85 267.498,140.183 267,143.5C 262.837,147.747 259.171,147.414 256,142.5C 255.502,139.518 255.335,136.518 255.5,133.5 Z"/></g>
<g><path style="opacity:0.596" fill="#f19c48" d="M 275.5,133.5 C 276.552,133.351 277.552,133.517 278.5,134C 280.333,136.5 282.167,139 284,141.5C 284.497,138.854 284.664,136.187 284.5,133.5C 285.5,133.5 286.5,133.5 287.5,133.5C 287.5,137.833 287.5,142.167 287.5,146.5C 286.448,146.649 285.448,146.483 284.5,146C 282.667,143.5 280.833,141 279,138.5C 278.503,141.146 278.336,143.813 278.5,146.5C 277.5,146.5 276.5,146.5 275.5,146.5C 275.5,142.167 275.5,137.833 275.5,133.5 Z"/></g>
<g><path style="opacity:0.552" fill="#f19c48" d="M 295.5,133.5 C 296.5,133.5 297.5,133.5 298.5,133.5C 298.5,137.833 298.5,142.167 298.5,146.5C 297.5,146.5 296.5,146.5 295.5,146.5C 295.5,142.167 295.5,137.833 295.5,133.5 Z"/></g>
<g><path style="opacity:0.626" fill="#f19c48" d="M 305.5,133.5 C 306.496,133.414 307.329,133.748 308,134.5C 309.333,137.167 310.667,139.833 312,142.5C 312.892,139.716 314.058,137.05 315.5,134.5C 316.5,133.167 317.5,133.167 318.5,134.5C 316.56,138.719 314.393,142.719 312,146.5C 311.228,146.355 310.561,146.022 310,145.5C 308.202,141.578 306.702,137.578 305.5,133.5 Z"/></g>
<g><path style="opacity:0.673" fill="#f19c48" d="M 325.5,133.5 C 328.572,133.183 331.572,133.516 334.5,134.5C 332.257,135.474 329.924,135.808 327.5,135.5C 327.5,136.5 327.5,137.5 327.5,138.5C 329.833,138.5 332.167,138.5 334.5,138.5C 334.5,139.5 334.5,140.5 334.5,141.5C 325.167,142.167 325.167,142.833 334.5,143.5C 334.5,144.5 334.5,145.5 334.5,146.5C 331.5,146.5 328.5,146.5 325.5,146.5C 325.5,142.167 325.5,137.833 325.5,133.5 Z"/></g>
<g><path style="opacity:0.633" fill="#f19c48" d="M 342.5,133.5 C 346.257,133.071 349.757,133.737 353,135.5C 353.839,138.14 353.339,140.473 351.5,142.5C 352.167,143.5 352.833,144.5 353.5,145.5C 350.951,146.831 349.284,145.998 348.5,143C 347.552,142.517 346.552,142.351 345.5,142.5C 345.5,143.833 345.5,145.167 345.5,146.5C 344.5,146.5 343.5,146.5 342.5,146.5C 342.5,142.167 342.5,137.833 342.5,133.5 Z M 345.5,135.5 C 349.343,135.191 350.676,136.691 349.5,140C 348.207,140.49 346.873,140.657 345.5,140.5C 345.5,138.833 345.5,137.167 345.5,135.5 Z"/></g>
<g><path style="opacity:0.62" fill="#f19c48" d="M 362.5,133.5 C 364.833,133.5 367.167,133.5 369.5,133.5C 369.5,134.5 369.5,135.5 369.5,136.5C 360.25,136.133 360.25,137.3 369.5,140C 370.935,142.267 370.602,144.267 368.5,146C 366.167,146.667 363.833,146.667 361.5,146C 360.483,144.951 360.316,143.784 361,142.5C 363.348,144.933 365.515,144.933 367.5,142.5C 365.219,141.723 363.052,140.723 361,139.5C 360.257,137.126 360.757,135.126 362.5,133.5 Z"/></g>
<g><path style="opacity:0.558" fill="#f19c48" d="M 377.5,133.5 C 378.5,133.5 379.5,133.5 380.5,133.5C 380.5,137.833 380.5,142.167 380.5,146.5C 379.5,146.5 378.5,146.5 377.5,146.5C 377.5,142.167 377.5,137.833 377.5,133.5 Z"/></g>
<g><path style="opacity:0.646" fill="#f19c48" d="M 387.5,133.5 C 391.226,133.177 394.893,133.511 398.5,134.5C 397.311,135.429 395.978,135.762 394.5,135.5C 394.5,139.167 394.5,142.833 394.5,146.5C 393.5,146.5 392.5,146.5 391.5,146.5C 391.5,142.833 391.5,139.167 391.5,135.5C 389.517,135.843 388.183,135.176 387.5,133.5 Z"/></g>
<g><path style="opacity:0.648" fill="#f19c48" d="M 422.5,133.5 C 425.187,133.336 427.854,133.503 430.5,134C 434.386,136.808 434.386,139.474 430.5,142C 431.687,143.019 432.687,144.186 433.5,145.5C 430.951,146.831 429.284,145.998 428.5,143C 427.552,142.517 426.552,142.351 425.5,142.5C 425.5,143.833 425.5,145.167 425.5,146.5C 424.5,146.5 423.5,146.5 422.5,146.5C 422.5,142.167 422.5,137.833 422.5,133.5 Z M 425.5,135.5 C 429.343,135.191 430.676,136.691 429.5,140C 428.207,140.49 426.873,140.657 425.5,140.5C 425.5,138.833 425.5,137.167 425.5,135.5 Z"/></g>
<g><path style="opacity:0.575" fill="#f19c48" d="M 440.5,133.5 C 441.5,133.5 442.5,133.5 443.5,133.5C 443.5,137.833 443.5,142.167 443.5,146.5C 442.5,146.5 441.5,146.5 440.5,146.5C 440.5,142.167 440.5,137.833 440.5,133.5 Z"/></g>
<g><path style="opacity:0.638" fill="#f19c48" d="M 454.5,133.5 C 460.295,132.137 463.961,134.304 465.5,140C 462.529,147.138 458.029,148.304 452,143.5C 450.861,139.579 451.695,136.246 454.5,133.5 Z M 457.5,135.5 C 463.882,138.148 464.049,141.148 458,144.5C 452.267,141.654 452.1,138.654 457.5,135.5 Z"/></g>
</svg>
